<?xml version="1.0" encoding="UTF-8"?>
<!-- Created with Inkscape (http://www.inkscape.org/) -->
<svg width="6mm" height="9mm" version="1.1" viewBox="0 0 6 9" xmlns="http://www.w3.org/2000/svg">
 <g transform="matrix(.03 0 0 .03 0 -.00038239)">
  <g transform="translate(.034451 100)">
   <path d="m0 0v100h100v-100zm9.9999 9.9999h80v80h-80z" fill="#0a0"/>
   <path d="m10 10h80v80h-80z" fill="#0a0" fill-opacity=".50196" stroke-linecap="square"/>
   <path d="m65 50a15 15 0 0 1-15 15 15 15 0 0 1-15-15 15 15 0 0 1 15-15 15 15 0 0 1 15 15z" fill="#fff" fill-opacity=".94118" stroke-linecap="square"/>
  </g>
  <g transform="translate(-81.47 100.79)">
   <path d="m181.5-0.79375v100h100v-100zm9.9999 9.9999h80v80h-80z" fill="#f00"/>
   <path d="m191.5 9.2062h80v80h-80z" fill="#f00" fill-opacity=".50196" stroke-linecap="square"/>
   <path d="m206.5 16.706 25 25 25-25 7.5 7.5-25 25 25 25-7.5 7.5-25-25-25 25-7.5-7.5 25-25-25-25z" fill="#fff" stroke-linecap="square"/>
  </g>
  <g transform="translate(-81.459 .82796)">
   <path d="m181.5-0.79375v100h100v-100zm9.9999 9.9999h80v80h-80z" fill="#f00"/>
   <path d="m191.5 9.2062h80v80h-80z" fill="#f00" fill-opacity=".50196" stroke-linecap="square"/>
   <path d="m206.5 16.706 25 25 25-25 7.5 7.5-25 25 25 25-7.5 7.5-25-25-25 25-7.5-7.5 25-25-25-25z" fill="#fff" stroke-linecap="square"/>
  </g>
  <g transform="translate(-81.459 200.78)">
   <path d="m181.5-0.79375v100h100v-100zm9.9999 9.9999h80v80h-80z" fill="#f00"/>
   <path d="m191.5 9.2062h80v80h-80z" fill="#f00" fill-opacity=".50196" stroke-linecap="square"/>
   <path d="m206.5 16.706 25 25 25-25 7.5 7.5-25 25 25 25-7.5 7.5-25-25-25 25-7.5-7.5 25-25-25-25z" fill="#fff" stroke-linecap="square"/>
  </g>
 </g>
</svg>
