<?xml version="1.0" encoding="UTF-8"?>
<!-- Created with Inkscape (http://www.inkscape.org/) -->
<svg width="9mm" height="9mm" version="1.1" viewBox="0 0 9 9" xmlns="http://www.w3.org/2000/svg">
 <g transform="matrix(.03 0 0 .03 3.0014 3.0003)">
  <path d="m0 0v100h100v-100zm9.9999 9.9999h80v80h-80z" fill="#3abeff"/>
  <path d="m10 10h80v80h-80z" fill="#3abeff" fill-opacity=".5" stroke-linecap="square"/>
  <path d="m20 45h35v-20l25 25-25 25v-20h-35z" fill="#fff" stroke-linecap="square"/>
 </g>
 <g transform="matrix(.03 0 0 .03 6.001 3.0005)">
  <path d="m0 0v100h100v-100zm9.9999 9.9999h80v80h-80z" fill="#f00"/>
  <path d="m10 10h80v80h-80z" fill="#f00" fill-opacity=".50196" stroke-linecap="square"/>
  <path d="m25 17.5 25 25 25-25 7.5 7.5-25 25 25 25-7.5 7.5-25-25-25 25-7.5-7.5 25-25-25-25z" fill="#fff" stroke-linecap="square"/>
 </g>
 <g transform="matrix(.03 0 0 .03 6.0012 5.9999)">
  <path d="m0 0v100h100v-100zm9.9999 9.9999h80v80h-80z" fill="#f00"/>
  <path d="m10 10h80v80h-80z" fill="#f00" fill-opacity=".50196" stroke-linecap="square"/>
  <path d="m25 17.5 25 25 25-25 7.5 7.5-25 25 25 25-7.5 7.5-25-25-25 25-7.5-7.5 25-25-25-25z" fill="#fff" stroke-linecap="square"/>
 </g>
 <g transform="matrix(.03 0 0 .03 6.0007 .0010336)">
  <path d="m0 0v100h100v-100zm9.9999 9.9999h80v80h-80z" fill="#f00"/>
  <path d="m10 10h80v80h-80z" fill="#f00" fill-opacity=".50196" stroke-linecap="square"/>
  <path d="m25 17.5 25 25 25-25 7.5 7.5-25 25 25 25-7.5 7.5-25-25-25 25-7.5-7.5 25-25-25-25z" fill="#fff" stroke-linecap="square"/>
 </g>
 <g transform="matrix(.03 0 0 .03 .00090508 3.0004)">
  <path d="m0 0v100h100v-100zm9.9999 9.9999h80v80h-80z" fill="#f00"/>
  <path d="m10 10h80v80h-80z" fill="#f00" fill-opacity=".50196" stroke-linecap="square"/>
  <path d="m25 17.5 25 25 25-25 7.5 7.5-25 25 25 25-7.5 7.5-25-25-25 25-7.5-7.5 25-25-25-25z" fill="#fff" stroke-linecap="square"/>
 </g>
 <g transform="matrix(.03 0 0 .03 3.0006 .001257)">
  <path d="m0 0v100h100v-100zm9.9999 9.9999h80v80h-80z" fill="#f00"/>
  <path d="m10 10h80v80h-80z" fill="#f00" fill-opacity=".50196" stroke-linecap="square"/>
  <path d="m25 17.5 25 25 25-25 7.5 7.5-25 25 25 25-7.5 7.5-25-25-25 25-7.5-7.5 25-25-25-25z" fill="#fff" stroke-linecap="square"/>
 </g>
 <g transform="matrix(.03 0 0 .03 .00025468 .00014345)">
  <path d="m0 0v100h100v-100zm9.9999 9.9999h80v80h-80z" fill="#f00"/>
  <path d="m10 10h80v80h-80z" fill="#f00" fill-opacity=".50196" stroke-linecap="square"/>
  <path d="m25 17.5 25 25 25-25 7.5 7.5-25 25 25 25-7.5 7.5-25-25-25 25-7.5-7.5 25-25-25-25z" fill="#fff" stroke-linecap="square"/>
 </g>
 <g transform="matrix(.03 0 0 .03 3.0013 6.0005)">
  <path d="m0 0v100h100v-100zm9.9999 9.9999h80v80h-80z" fill="#f00"/>
  <path d="m10 10h80v80h-80z" fill="#f00" fill-opacity=".50196" stroke-linecap="square"/>
  <path d="m25 17.5 25 25 25-25 7.5 7.5-25 25 25 25-7.5 7.5-25-25-25 25-7.5-7.5 25-25-25-25z" fill="#fff" stroke-linecap="square"/>
 </g>
 <g transform="matrix(.03 0 0 .03 .001137 6.0006)">
  <path d="m0 0v100h100v-100zm9.9999 9.9999h80v80h-80z" fill="#f00"/>
  <path d="m10 10h80v80h-80z" fill="#f00" fill-opacity=".50196" stroke-linecap="square"/>
  <path d="m25 17.5 25 25 25-25 7.5 7.5-25 25 25 25-7.5 7.5-25-25-25 25-7.5-7.5 25-25-25-25z" fill="#fff" stroke-linecap="square"/>
 </g>
</svg>
